<svg width="30" height="30" viewBox="0 0 30 30" fill="none" xmlns="http://www.w3.org/2000/svg">
<rect width="30" height="30" rx="6" fill="#F5F5F5"/>
<path d="M14.7592 11.6314L8.99988 16.3768V21.5001C8.99811 21.6308 9.04974 21.7568 9.14343 21.8505C9.23712 21.9443 9.36522 21.998 9.49962 22L13.0008 21.9907C13.1348 21.9881 13.2623 21.934 13.3555 21.8404C13.4487 21.7468 13.5 21.6211 13.4982 21.4908V18.4981C13.4964 18.3674 13.5481 18.2414 13.6417 18.1477C13.7354 18.054 13.8635 18.0002 13.9979 17.9983H15.9975C16.1319 18.0002 16.26 18.054 16.3537 18.1477C16.4474 18.2414 16.499 18.3674 16.4973 18.4981V21.4867C16.4965 21.6189 16.5488 21.7461 16.643 21.8414C16.6889 21.8877 16.7439 21.9246 16.8047 21.9498C16.8655 21.9751 16.9309 21.9882 16.997 21.9883L20.497 21.9982C20.6314 21.9967 20.7597 21.9434 20.8537 21.85C20.9478 21.7566 20.9998 21.6308 20.9986 21.5001V16.3733L15.2392 11.6314C15.172 11.5764 15.087 11.5462 14.9992 11.5462C14.9114 11.5462 14.8264 11.5764 14.7592 11.6314V11.6314ZM23.8585 14.8568L21.2463 12.7034V8.37679C21.2471 8.32823 21.2379 8.28 21.2195 8.23487C21.201 8.18974 21.1736 8.14859 21.1388 8.11376C21.1039 8.07894 21.0624 8.05112 21.0165 8.0319C20.9707 8.01268 20.9213 8.00244 20.8714 8.00175H19.1226C19.0726 8.00244 19.0233 8.01268 18.9774 8.0319C18.9315 8.05112 18.89 8.07894 18.8552 8.11376C18.8204 8.14859 18.7929 8.18974 18.7745 8.23487C18.756 8.28 18.7469 8.32823 18.7476 8.37679V10.6457L15.9501 8.34179C15.6844 8.1212 15.3465 8 14.9971 8C14.6477 8 14.3098 8.1212 14.0441 8.34179L6.13579 14.8568C6.059 14.9215 6.01093 15.0126 6.00165 15.111C5.99236 15.2094 6.02259 15.3074 6.086 15.3847L6.88211 16.3535C6.91296 16.3914 6.95131 16.4229 6.9949 16.4461C7.03849 16.4693 7.08643 16.4838 7.13588 16.4888C7.18514 16.4935 7.23486 16.4885 7.28208 16.474C7.32929 16.4596 7.37302 16.436 7.41065 16.4048L14.7592 10.35C14.8264 10.295 14.9114 10.2648 14.9992 10.2648C15.087 10.2648 15.172 10.295 15.2392 10.35L22.589 16.4042C22.6266 16.4355 22.6704 16.4591 22.7176 16.4736C22.7649 16.4881 22.8146 16.4931 22.864 16.4885C22.9133 16.4838 22.9611 16.4695 23.0046 16.4464C23.048 16.4233 23.0863 16.3919 23.1169 16.354L23.9136 15.3852C23.9776 15.3076 24.0079 15.2089 23.9982 15.1099C23.9887 15.0112 23.9395 14.9201 23.8615 14.8562L23.8585 14.8568Z" fill="#1D2731"/>
</svg>
