<svg width="30" height="30" viewBox="0 0 30 30" fill="none" xmlns="http://www.w3.org/2000/svg">
<rect width="30" height="30" rx="6" fill="white"/>
<path d="M23.9058 20.9844C23.0713 18.5559 20.8662 16.8856 18.3206 16.6582C17.4682 17.551 16.4128 18.1174 15.2177 18.1174C14.0234 18.1174 12.9673 17.5511 12.1157 16.6582C9.56861 16.8856 7.36341 18.5559 6.52891 20.9848L6.06762 22.3278C5.93568 22.7143 5.99886 23.1401 6.23933 23.4717C6.47975 23.8033 6.86694 24.0002 7.27907 24.0002H23.1556C23.5685 24.0002 23.9557 23.8033 24.1961 23.4717C24.4358 23.1401 24.4998 22.7143 24.367 22.3278L23.9058 20.9844Z" fill="#1D2731"/>
<path d="M11.0784 10.6877C11.0784 13.7 12.9323 16.9323 15.2178 16.9323C17.5042 16.9323 19.3581 13.7 19.3581 10.6877C19.3581 4.44362 11.0784 4.43124 11.0784 10.6877Z" fill="#1D2731"/>
</svg>
