<svg width="30" height="30" viewBox="0 0 30 30" fill="none" xmlns="http://www.w3.org/2000/svg">
<rect width="30" height="30" rx="6" fill="#FF0000"/>
<path d="M9.01786 22C9.01786 23.1 9.93393 24 11.0536 24H19.1964C20.3161 24 21.2321 23.1 21.2321 22V10H9.01786V22ZM11.5218 14.88L12.957 13.47L15.125 15.59L17.2829 13.47L18.718 14.88L16.5602 17L18.718 19.12L17.2829 20.53L15.125 18.41L12.9671 20.53L11.532 19.12L13.6898 17L11.5218 14.88ZM18.6875 7L17.6696 6H12.5804L11.5625 7H8V9H22.25V7H18.6875Z" fill="white"/>
</svg>
