<svg width="88" height="60" viewBox="0 0 88 60" fill="none" xmlns="http://www.w3.org/2000/svg">
<path d="M44 8C59.16 8 72.68 16.52 79.28 30C72.68 43.48 59.16 52 44 52C28.84 52 15.32 43.48 8.72 30C15.32 16.52 28.84 8 44 8ZM44 0C24 0 6.92 12.44 0 30C6.92 47.56 24 60 44 60C64 60 81.08 47.56 88 30C81.08 12.44 64 0 44 0ZM44 20C49.52 20 54 24.48 54 30C54 35.52 49.52 40 44 40C38.48 40 34 35.52 34 30C34 24.48 38.48 20 44 20ZM44 12C34.08 12 26 20.08 26 30C26 39.92 34.08 48 44 48C53.92 48 62 39.92 62 30C62 20.08 53.92 12 44 12Z" fill="#1976D2"/>
</svg>
